<?xml version="1.0" encoding="UTF-8" standalone="no"?>
<!-- Creator: CorelDRAW -->

<svg
   xmlns:dc="http://purl.org/dc/elements/1.1/"
   xmlns:cc="http://creativecommons.org/ns#"
   xmlns:rdf="http://www.w3.org/1999/02/22-rdf-syntax-ns#"
   xmlns:svg="http://www.w3.org/2000/svg"
   xmlns="http://www.w3.org/2000/svg"
   xmlns:sodipodi="http://sodipodi.sourceforge.net/DTD/sodipodi-0.dtd"
   xmlns:inkscape="http://www.inkscape.org/namespaces/inkscape"
   xml:space="preserve"
   width="241.99519mm"
   height="49.7826mm"
   style="clip-rule:evenodd;fill-rule:evenodd;image-rendering:optimizeQuality;shape-rendering:geometricPrecision;text-rendering:geometricPrecision"
   viewBox="0 0 241.99519 49.7826"
   id="svg2"
   version="1.1"
   inkscape:version="0.91 r13725"
   sodipodi:docname="Mercedes-Benz Logo.svg"><metadata
     id="metadata46"><rdf:RDF><cc:Work
         rdf:about=""><dc:format>image/svg+xml</dc:format><dc:type
           rdf:resource="http://purl.org/dc/dcmitype/StillImage" /><dc:title></dc:title></cc:Work></rdf:RDF></metadata><sodipodi:namedview
     pagecolor="#ffffff"
     bordercolor="#666666"
     borderopacity="1"
     objecttolerance="10"
     gridtolerance="10"
     guidetolerance="10"
     inkscape:pageopacity="0"
     inkscape:pageshadow="2"
     inkscape:window-width="1366"
     inkscape:window-height="705"
     id="namedview44"
     showgrid="false"
     fit-margin-top="0"
     fit-margin-left="0"
     fit-margin-right="0"
     fit-margin-bottom="0"
     inkscape:zoom="1"
     inkscape:cx="371.97"
     inkscape:cy="166.13964"
     inkscape:window-x="-8"
     inkscape:window-y="-8"
     inkscape:window-maximized="1"
     inkscape:current-layer="svg2" /><defs
     id="defs4"><style
       type="text/css"
       id="style6"><![CDATA[
    .fil0 {fill:#1F1A17}
   ]]></style></defs><g
     id="Layer_x0020_1"
     transform="translate(-0.0218,-247.2057)"><metadata
       id="CorelCorpID_0Corel-Layer" /><polygon
       class="fil0"
       points="25.431,271.958 26.5461,271.321 40.4833,280.878 "
       id="polygon10"
       style="fill:#1f1a17" /><polygon
       class="fil0"
       points="24.6305,271.45 23.5952,270.852 24.75,252.614 "
       id="polygon12"
       style="fill:#1f1a17" /><polygon
       class="fil0"
       points="23.3828,271.386 18.7637,275.209 24.2987,271.944 "
       id="polygon14"
       style="fill:#1f1a17" /><path
       class="fil0"
       d="m 24.9125,248.544 c -13.0005,0 -23.5397,10.5392 -23.5397,23.5396 0,5.2796 1.9171,10.2738 4.8383,14.5881 0.9908,1.8531 2.0633,3.0007 3.4938,4.5159 -5.6055,-4.4785 -9.2331,-11.3715 -9.2331,-19.104 0,-13.4981 10.9427,-24.4407 24.4407,-24.4407 13.4979,0 24.6488,11.4195 24.2481,24.4397 C 48.8223,259.3773 37.6995,248.544 24.9125,248.544 Z m -2.159,21.7798 2.0125,-20.6383 c 0.049,-2e-4 0.0978,-0.002 0.1469,-0.002 0.017,0 0.034,5e-4 0.051,5e-4 l 0.1974,21.7173 3.4644,-2.0706 -3.4853,-19.6445 c 12.2734,0.1223 22.1861,10.1083 22.1861,22.4105 0,3.9521 -1.0245,7.6643 -2.8201,10.8885 l -15.5558,-13.0163 -1.4733,0.8363 16.9247,12.3666 c -0.0424,0.0748 -0.0858,0.1489 -0.1288,0.2226 l -19.0323,-10.9494 0,3.8627 18.9021,7.3068 c -3.9176,6.5268 -11.0633,10.8956 -19.2301,10.8956 -8.1585,0 -15.2982,-4.36 -19.2186,-10.8761 l 18.8903,-7.3661 0,-3.8627 -19.0548,10.9504 C 5.4877,283.2833 5.4461,283.211 5.4048,283.1379 L 22.2686,270.8057 20.7952,269.9693 5.2813,282.917 c -1.772,-3.2079 -2.7817,-6.8958 -2.7817,-10.82 0,-12.2056 9.757,-22.1321 21.8967,-22.4067 l -3.0365,19.7972 1.3937,0.8363 z m 2.1619,25.3363 c -5.6889,0 -11.0106,-1.8958 -14.9759,-5.3774 -3.8592,-3.3888 -6.8559,-8.7737 -7.5957,-14.4967 1.7541,10.885 11.1922,19.1985 22.5716,19.1985 12.6272,0 22.8637,-10.2369 22.8637,-22.864 0,-5.2388 -1.9576,-10.3677 -4.9213,-14.2233 3.0033,2.3168 5.5972,8.9152 5.5972,14.2233 0,13.0004 -10.5392,23.5396 -23.5396,23.5396 z m -0.0025,-48.4544 c -13.7468,0 -24.8911,11.1445 -24.8911,24.8913 0,13.7467 11.1443,24.8913 24.8911,24.8913 13.7469,0 24.8911,-11.1446 24.8911,-24.8913 0,-13.7468 -11.1442,-24.8913 -24.8911,-24.8913 z"
       id="path16"
       inkscape:connector-curvature="0"
       style="fill:#1f1a17" /><path
       class="fil0"
       d="m 134.251,273.745 c 0,-4.3658 -1.9295,-7.9051 -6.1677,-7.9051 -3.9313,0 -6.168,3.5393 -6.168,7.9051 0,4.366 1.868,7.9055 6.168,7.9055 4.1769,-1e-4 5.4056,-2.0699 6.0466,-5.3801 l -1.4396,-0.007 c -0.1229,1.2285 -0.9216,3.9927 -3.9928,4.0542 -3.5006,0.0701 -3.7469,-4.4226 -3.6859,-6.5727 l 0.0618,-1.2285 c 0,-1.3514 -0.1228,-5.3441 3.1326,-5.3441 2.58,0 2.9486,3.317 2.9486,5.3441 l -6.0812,0 -0.0617,1.2285 9.2393,0 z"
       id="path18"
       inkscape:connector-curvature="0"
       style="fill:#1f1a17" /><path
       class="fil0"
       d="m 61.5893,260.401 -0.0614,0.9829 0.9215,0 c 0.6755,0 1.5356,0.0614 1.5356,0.9214 l -0.3069,16.6466 c 0,0.6144 -0.3073,1.29 -1.536,1.29 l -0.9214,0 -0.0614,0.9828 6.2042,0 0,-0.9828 -1.0441,0 c -0.7987,0 -1.3516,-0.2457 -1.3516,-1.29 l 0.307,-15.971 6.6343,17.1996 0.6756,0 6.6957,-17.3837 0.3069,16.1551 c 0,0.5529 -0.5528,1.29 -1.4129,1.29 l -1.2897,0 0,0.9828 7.801,0 0,-0.9828 -0.9211,0 c -0.6756,0 -1.4743,-0.3685 -1.4743,-1.2286 L 81.983,262.5509 c 0,-0.5527 0.6146,-1.167 1.2287,-1.167 l 1.1671,0 0,-0.9829 -5.5898,0 -5.7743,15.1111 -5.7739,-15.1111 -5.6515,0 z"
       id="path20"
       inkscape:connector-curvature="0"
       style="fill:#1f1a17" /><path
       class="fil0"
       d="m 104.801,281.239 0,-0.7986 -0.6143,0 c -0.5528,0 -1.5356,-0.1842 -1.5356,-1.29 l 0,-8.0469 c 0,-2.5185 1.2897,-3.4399 2.5798,-3.4399 0.4915,0 0.7987,0.2458 0.6759,1.1672 -0.1227,0.9214 0.6756,1.5357 1.3512,1.4742 0.6759,-0.0614 1.5356,-0.1843 1.4128,-1.9043 -0.1226,-1.72 -1.1056,-2.5184 -2.8257,-2.5184 -1.3511,0 -2.4567,0.8599 -2.764,1.2899 -0.357,0.4999 -0.7987,0.3071 -0.8601,-0.2456 -0.0613,-0.553 -0.3073,-1.1058 -0.9214,-0.9214 -1.3512,0.4299 -2.5799,0.6142 -3.6241,0.6755 l 0,0.6145 c 2.5799,-0.123 2.3343,1.167 2.3343,1.7813 l 0,10.0739 c 0,1.1058 -0.9828,1.29 -1.5356,1.29 l -0.8601,0 0,0.7986 7.1869,0 z"
       id="path22"
       inkscape:connector-curvature="0"
       style="fill:#1f1a17" /><path
       class="fil0"
       d="m 118.485,266.818 c -0.9052,-0.6616 -2.0437,-1.0395 -3.4294,-1.0395 -3.9313,0 -6.1679,3.5393 -6.1679,7.9051 0,4.366 1.8683,7.8839 6.1679,7.9053 3.8086,0.0187 4.7301,-2.1311 5.3711,-5.4414 l -1.4396,-0.007 c -0.1229,1.2286 -0.5529,4.0542 -3.3169,4.1157 -3.5006,0.0779 -3.7472,-4.4228 -3.6859,-6.5727 10e-5,-1.3514 0.1842,-6.757 3.1327,-6.757 2.5185,-10e-5 4.0541,1.7814 4.0541,3.8085 l 0.7987,0 0,-5.1599 -0.6755,0 -0.8093,1.2428 z"
       id="path24"
       inkscape:connector-curvature="0"
       style="fill:#1f1a17" /><path
       class="fil0"
       d="m 206.858,267.173 c 2.5799,0 2.9484,3.317 2.9484,5.3441 l -6.0812,0 c 0,-1.3514 -0.1231,-5.3441 3.1328,-5.3441 z m 0.4914,13.1453 c -3.5006,0.0701 -3.7473,-4.4226 -3.6856,-6.5727 l 9.2394,0 c 0,-4.3658 -1.9298,-7.9051 -6.1681,-7.9051 -3.9313,0 -6.168,3.5393 -6.168,7.9051 1e-4,4.366 1.868,7.9053 6.168,7.9053 4.1769,0 5.4053,-2.0697 6.0466,-5.3799 l -1.4396,-0.007 c -0.1227,1.2285 -0.9215,3.9929 -3.9927,4.0542 z"
       id="path26"
       inkscape:connector-curvature="0"
       style="fill:#1f1a17" /><path
       class="fil0"
       d="m 156.358,267.173 c 2.5802,0 2.9485,3.317 2.9485,5.3441 l -6.0808,0 c 0,-1.3514 -0.1232,-5.3441 3.1323,-5.3441 z m 0.4917,13.1453 c -3.5006,0.0701 -3.7472,-4.4226 -3.6858,-6.5727 l 9.2393,0 c 0,-4.3658 -1.9294,-7.9051 -6.168,-7.9051 -3.931,0 -6.1676,3.5393 -6.1676,7.9051 0,4.366 1.8679,7.9053 6.1676,7.9053 4.1773,0 5.4056,-2.0697 6.0466,-5.3799 l -1.4393,-0.007 c -0.1231,1.2285 -0.9215,3.9929 -3.9928,4.0542 z"
       id="path28"
       inkscape:connector-curvature="0"
       style="fill:#1f1a17" /><path
       class="fil0"
       d="m 91.1651,267.173 c 2.5799,0 2.9485,3.317 2.9485,5.3441 l -6.0815,0 c 0,-1.3514 -0.1228,-5.3441 3.133,-5.3441 z m 0.4915,13.1453 c -3.501,0.0701 -3.7473,-4.4226 -3.6859,-6.5727 l 9.2393,0 c 0,-4.3658 -1.9294,-7.9051 -6.168,-7.9051 -3.9313,0 -6.1676,3.5393 -6.1676,7.9051 0,4.366 1.8679,7.9053 6.1676,7.9053 4.1773,0 5.4056,-2.0697 6.0466,-5.3799 l -1.4393,-0.007 c -0.1231,1.2285 -0.9215,3.9929 -3.9927,4.0542 z"
       id="path30"
       inkscape:connector-curvature="0"
       style="fill:#1f1a17" /><path
       class="fil0"
       d="m 144.988,276.187 c -0.0614,3.3786 -1.8426,4.4228 -3.3168,4.4228 -3.3171,-0.0615 -3.0713,-5.0986 -3.0713,-7.2485 0,-2.1499 0.1227,-6.3882 3.1326,-6.0198 3.01,0.3687 3.2555,3.5628 3.2555,5.4671 l 0,3.3784 z m 2.6416,1.8428 0,-17.138 c 0,-0.7064 -0.3687,-1.29 -0.9829,-1.1057 -1.3514,0.4299 -2.5798,0.6143 -3.6241,0.6756 l 10e-5,0.6142 c 1.7812,-0.1228 1.9653,0.4301 1.9653,1.0444 l 0,5.2827 c -0.7983,-0.7371 -1.7198,-1.4743 -3.3782,-1.4743 -2.0888,0 -5.9584,1.6586 -5.9584,7.4941 0,7.6784 4.4841,8.1697 5.8356,8.1697 1.3512,0 3.1327,-1.1055 3.501,-1.6891 0.0307,-0.1228 0.2152,-0.2765 0.2766,0 0.0614,0.5529 0.4607,1.382 1.0749,1.1978 1.3515,-0.4301 2.5802,-0.6142 3.6241,-0.6757 l 0,-0.6143 c -2.5798,0.1228 -2.334,-1.1672 -2.334,-1.7814 z"
       id="path32"
       inkscape:connector-curvature="0"
       style="fill:#1f1a17" /><polygon
       class="fil0"
       points="175.579,272.445 183.687,272.445 183.687,271.033 175.579,271.033 "
       id="polygon34"
       style="fill:#1f1a17" /><path
       class="fil0"
       d="m 164.41,276.017 0,5.2212 0.6756,0 0.6145,-1.3514 c 0.6142,0.5528 1.904,1.4742 3.5627,1.4742 1.6584,0 3.9928,-0.9214 4.9142,-2.6414 0.9215,-1.7198 0.4914,-4.5454 -1.5974,-5.4055 -1.8291,-0.7531 -3.4335,-1.6553 -4.6683,-2.2727 -0.9828,-0.4915 -1.2209,-1.4728 -1.1056,-2.0886 0.1842,-0.9827 1.0442,-2.0271 3.0099,-2.0884 1.9658,-0.0615 2.9485,1.5969 3.1941,3.5012 l 0.676,0 0,-4.914 -0.6146,0 -0.6756,1.167 c -1.2897,-0.8599 -1.8429,-0.9828 -3.0099,-0.9828 -1.167,0 -3.1327,0.6143 -4.2383,2.3343 -1.1059,1.7199 -0.7987,4.4226 1.8426,5.5283 2.6413,1.1057 3.8699,1.7815 4.6073,2.1499 0.7369,0.3687 1.1669,1.843 0.6755,2.7029 -0.4913,0.8599 -1.4129,1.8428 -2.8871,1.8428 -1.4743,0 -3.8086,-1.0443 -4.3614,-4.177 l -0.6142,0 z"
       id="path36"
       inkscape:connector-curvature="0"
       style="fill:#1f1a17" /><path
       class="fil0"
       d="m 192.285,280.242 -3.1327,0 0,-9.3983 3.5013,0 c 2.0271,0 3.8082,1.4129 3.8082,4.4842 0,3.0713 -1.8429,4.9141 -4.1768,4.9141 z m -3.1327,-18.858 3.0713,0 c 2.2726,0 3.194,1.6576 3.194,3.8084 0,2.6414 -0.7987,4.6685 -3.194,4.6685 l -3.0713,0 0,-8.4769 z m 6.0812,8.5997 c 1.4743,-0.3685 2.9485,-3.0098 2.9485,-4.7913 0,-1.7813 -0.6756,-4.7913 -4.9756,-4.7913 l -9.2142,0 0,0.7986 c 0.9215,0 2.5185,0.1843 2.5185,1.72 l 0,15.1724 c 0,0.8599 -0.0614,2.2728 -2.5185,2.2728 l 0,0.8599 7.5555,0 c 2.2729,0 7.4944,-0.1843 7.6171,-6.2041 0,-2.0271 -0.9828,-4.4228 -3.9313,-5.037 z"
       id="path38"
       inkscape:connector-curvature="0"
       style="fill:#1f1a17" /><path
       class="fil0"
       d="m 224.253,270.059 0,9.0911 c 0,1.1058 -0.9833,1.29 -1.5362,1.29 l -0.3682,0 0,0.7986 6.6955,0 0,-0.7986 -0.6142,0 c -0.5532,0 -1.5358,-0.1842 -1.5358,-1.29 l 1e-4,-9.0297 c -0.0617,-4.1155 -3.7473,-4.2384 -5.0374,-4.2384 -1.3511,0 -2.8254,0.8599 -3.1327,1.2899 -0.357,0.4999 -0.7983,0.3071 -0.8597,-0.2456 -0.0616,-0.553 -0.3073,-1.1058 -0.9215,-0.9214 -1.3513,0.4299 -2.5802,0.6142 -3.6244,0.6755 l 0,0.6145 c 2.5803,-0.123 2.3343,1.167 2.3343,1.7813 l 10e-5,10.0739 c 0,1.1058 -0.9829,1.29 -1.5357,1.29 l -0.8596,0 0,0.7986 7.1868,0 0,-0.7986 -0.6146,0 c -0.5528,0 -1.5357,-0.1842 -1.5357,-1.29 l 0,-8.0469 c 0,-1.3513 0.4914,-3.5012 3.0102,-3.6855 2.5187,-0.1843 2.9486,1.4742 2.9487,2.6413 z"
       id="path40"
       inkscape:connector-curvature="0"
       style="fill:#1f1a17" /><path
       class="fil0"
       d="m 230.469,270.367 1.1055,-4.1769 10.4425,0 -8.9682,14.1896 4.7915,0 c 1.1055,0 1.9655,-0.4299 3.1325,-3.2556 l 0.4916,0 -0.9829,4.1155 -10.6882,0 8.907,-14.1895 -3.9927,0 c -0.9829,0 -2.0889,0 -3.6246,3.317 l -0.614,-10e-5 z"
       id="path42"
       inkscape:connector-curvature="0"
       style="fill:#1f1a17" /></g></svg>